<?xml version="1.0" standalone="no"?>
<!DOCTYPE svg PUBLIC "-//W3C//DTD SVG 20010904//EN"
 "http://www.w3.org/TR/2001/REC-SVG-20010904/DTD/svg10.dtd">
<svg version="1.0" xmlns="http://www.w3.org/2000/svg"
 width="860.000000pt" height="681.000000pt" viewBox="0 0 860.000000 681.000000"
 preserveAspectRatio="xMidYMid meet">

<g transform="translate(0.000000,681.000000) scale(0.100000,-0.100000)"
fill="#000000" stroke="none">
<path d="M1945 6392 c-27 -7 -32 -14 -66 -124 -119 -371 -143 -796 -68 -1173
177 -889 843 -1598 1713 -1826 95 -24 326 -69 358 -69 7 0 9 -46 5 -137 -4
-116 -12 -165 -46 -303 -22 -91 -50 -227 -63 -302 -12 -76 -25 -138 -29 -138
-3 0 -19 18 -34 40 -42 61 -187 195 -266 246 -177 115 -334 163 -554 171 -128
4 -165 2 -253 -16 -109 -23 -219 -62 -316 -114 l-58 -31 6 -63 c49 -476 431
-877 908 -953 118 -19 341 -8 449 22 l86 24 7 -130 c16 -306 60 -611 126 -873
21 -84 48 -165 59 -182 11 -16 39 -36 62 -45 84 -34 179 27 179 114 0 19 -15
96 -34 170 -85 339 -120 640 -120 1040 0 318 13 473 60 730 45 246 148 603
205 710 10 19 33 72 50 118 57 148 257 488 377 641 l19 23 122 -17 c164 -24
450 -16 596 15 622 133 1119 574 1319 1171 65 197 81 304 81 561 0 124 -3 230
-7 233 -14 14 -194 55 -306 70 -369 49 -758 -24 -1080 -203 -447 -247 -770
-689 -872 -1191 -23 -114 -43 -348 -34 -397 5 -26 -2 -42 -43 -97 -26 -36 -51
-66 -54 -66 -3 -1 -9 56 -12 127 -25 502 -227 1009 -560 1397 -379 444 -920
737 -1497 810 -128 16 -374 26 -415 17z m394 -287 c463 -66 882 -274 1206
-601 483 -486 694 -1178 569 -1866 -9 -49 -20 -88 -25 -88 -5 0 -9 6 -9 13 0
7 -31 76 -69 153 -105 210 -226 387 -576 839 -72 94 -193 252 -269 352 -122
163 -141 184 -176 194 -108 33 -209 -73 -167 -174 16 -38 114 -171 427 -577
327 -424 422 -562 515 -747 64 -126 66 -125 -67 -98 -128 26 -341 100 -473
164 -222 107 -374 213 -548 381 -357 343 -570 780 -628 1285 -23 198 -3 495
48 713 l17 72 60 0 c34 0 108 -7 165 -15z m4136 -378 l80 -12 3 -69 c2 -39 -4
-118 -13 -178 -70 -481 -370 -895 -805 -1113 -204 -102 -375 -144 -617 -152
-94 -3 -179 -3 -189 1 -15 6 -5 20 57 82 181 184 399 361 657 531 95 63 179
124 187 136 23 33 20 119 -6 151 -27 34 -70 56 -110 56 -92 0 -572 -347 -836
-604 -71 -69 -74 -66 -43 55 69 271 198 497 395 694 229 231 502 368 830 419
111 17 303 19 410 3z m-3410 -3241 c86 -23 230 -97 300 -153 32 -27 86 -80
118 -118 61 -73 146 -232 150 -281 2 -25 -3 -29 -58 -48 -49 -16 -88 -20 -215
-20 -136 -1 -164 2 -230 22 -238 75 -412 225 -515 445 -50 106 -53 125 -21
136 110 42 347 51 471 17z"/>
</g>
</svg>
